<?xml version="1.0" encoding="UTF-8" standalone="no"?>
<!DOCTYPE svg PUBLIC "-//W3C//DTD SVG 1.1//EN"
 "http://www.w3.org/Graphics/SVG/1.1/DTD/svg11.dtd">
<!-- Generated by graphviz version 2.30.1 (20130611.0131)
 -->
<!-- Title: Perl Pages: 1 -->
<svg width="478pt" height="132pt"
 viewBox="0.00 0.00 478.00 132.00" xmlns="http://www.w3.org/2000/svg" xmlns:xlink="http://www.w3.org/1999/xlink">
<g id="graph0" class="graph" transform="scale(1 1) rotate(0) translate(4 128)">
<title>Perl</title>
<polygon fill="white" stroke="white" points="-4,5 -4,-128 475,-128 475,5 -4,5"/>
<!-- node.1 -->
<g id="node1" class="node"><title>node.1</title>
<ellipse fill="none" stroke="black" cx="38" cy="-106" rx="38.4949" ry="18"/>
<text text-anchor="middle" x="38" y="-102.3" font-family="Times,serif" font-size="14.00">Node &#160;1</text>
</g>
<!-- node.2 -->
<g id="node2" class="node"><title>node.2</title>
<ellipse fill="none" stroke="blue" cx="38" cy="-18" rx="34.1708" ry="18"/>
<text text-anchor="middle" x="38" y="-14.3" font-family="Times,serif" font-size="14.00">node.2</text>
</g>
<!-- node.1&#45;&gt;node.2 -->
<g id="edge1" class="edge"><title>node.1&#45;&gt;node.2</title>
<path fill="none" stroke="grey" d="M38,-87.5966C38,-75.7459 38,-59.8169 38,-46.2917"/>
<polygon fill="grey" stroke="grey" points="34,-36.084 42,-36.084 42.0001,-44.084 34.0001,-44.084 34,-36.084"/>
<polyline fill="none" stroke="grey" points="38.0001,-44.084 38.0001,-46.084 "/>
<text text-anchor="middle" x="55" y="-58.3" font-family="Times,serif" font-size="14.00">A box</text>
</g>
<!-- node.3 -->
<g id="node3" class="node"><title>node.3</title>
<ellipse fill="none" stroke="black" cx="134" cy="-106" rx="38.4949" ry="18"/>
<text text-anchor="middle" x="134" y="-102.3" font-family="Times,serif" font-size="14.00">Node &#160;3</text>
</g>
<!-- node.4 -->
<g id="node4" class="node"><title>node.4</title>
<ellipse fill="none" stroke="blue" cx="134" cy="-18" rx="34.1708" ry="18"/>
<text text-anchor="middle" x="134" y="-14.3" font-family="Times,serif" font-size="14.00">node.4</text>
</g>
<!-- node.3&#45;&gt;node.4 -->
<g id="edge2" class="edge"><title>node.3&#45;&gt;node.4</title>
<path fill="none" stroke="grey" d="M134,-87.5966C134,-75.7459 134,-59.8169 134,-46.2917"/>
<polygon fill="grey" stroke="grey" points="134,-46.084 138.5,-36.084 134,-41.084 134,-36.084 134,-36.084 134,-36.084 134,-41.084 129.5,-36.0841 134,-46.084 134,-46.084"/>
<text text-anchor="middle" x="154.5" y="-58.3" font-family="Times,serif" font-size="14.00">A crow</text>
</g>
<!-- node.5 -->
<g id="node5" class="node"><title>node.5</title>
<ellipse fill="none" stroke="black" cx="230" cy="-106" rx="38.4949" ry="18"/>
<text text-anchor="middle" x="230" y="-102.3" font-family="Times,serif" font-size="14.00">Node &#160;5</text>
</g>
<!-- node.6 -->
<g id="node6" class="node"><title>node.6</title>
<ellipse fill="none" stroke="blue" cx="230" cy="-18" rx="34.1708" ry="18"/>
<text text-anchor="middle" x="230" y="-14.3" font-family="Times,serif" font-size="14.00">node.6</text>
</g>
<!-- node.5&#45;&gt;node.6 -->
<g id="edge3" class="edge"><title>node.5&#45;&gt;node.6</title>
<path fill="none" stroke="grey" d="M230,-87.5966C230,-76.3325 230,-61.384 230,-48.3173"/>
<polygon fill="grey" stroke="grey" points="230,-48.084 226,-42.084 230,-36.084 234,-42.084 230,-48.084"/>
<text text-anchor="middle" x="261" y="-58.3" font-family="Times,serif" font-size="14.00">A diamond</text>
</g>
<!-- node.7 -->
<g id="node7" class="node"><title>node.7</title>
<ellipse fill="none" stroke="black" cx="327" cy="-106" rx="39.4691" ry="18"/>
<text text-anchor="start" x="305" y="-103.3" font-family="Times,serif" font-size="14.00">Node &#160;7</text>
</g>
<!-- node.8 -->
<g id="node8" class="node"><title>node.8</title>
<ellipse fill="none" stroke="blue" cx="327" cy="-18" rx="34.1708" ry="18"/>
<text text-anchor="middle" x="327" y="-14.3" font-family="Times,serif" font-size="14.00">node.8</text>
</g>
<!-- node.7&#45;&gt;node.8 -->
<g id="edge4" class="edge"><title>node.7&#45;&gt;node.8</title>
<path fill="none" stroke="grey" d="M327,-87.5966C327,-78.5619 327,-67.1568 327,-56.2537"/>
<polygon fill="grey" stroke="grey" points="327,-36.084 331.5,-46.084 327,-41.084 327,-46.084 327,-46.084 327,-46.084 327,-41.084 322.5,-46.084 327,-36.084 327,-36.084"/>
<polygon fill="grey" stroke="grey" points="327,-46.084 331.5,-56.084 327,-51.084 327,-56.084 327,-56.084 327,-56.084 327,-51.084 322.5,-56.084 327,-46.084 327,-46.084"/>
<text text-anchor="middle" x="353" y="-58.3" font-family="Times,serif" font-size="14.00">A veevee</text>
</g>
<!-- node.9 -->
<g id="node9" class="node"><title>node.9</title>
<ellipse fill="none" stroke="black" cx="424" cy="-106" rx="38.4949" ry="18"/>
<text text-anchor="middle" x="424" y="-102.3" font-family="Times,serif" font-size="14.00">Node &#160;9</text>
</g>
<!-- node.10 -->
<g id="node10" class="node"><title>node.10</title>
<ellipse fill="none" stroke="blue" cx="424" cy="-18" rx="38.4949" ry="18"/>
<text text-anchor="middle" x="424" y="-14.3" font-family="Times,serif" font-size="14.00">node.10</text>
</g>
<!-- node.9&#45;&gt;node.10 -->
<g id="edge5" class="edge"><title>node.9&#45;&gt;node.10</title>
<path fill="none" stroke="grey" d="M424,-87.5966C424,-75.7459 424,-59.8169 424,-46.2917"/>
<polygon fill="grey" stroke="grey" points="419,-37.0841 429,-37.084 429,-39.084 419,-39.0841 419,-37.0841"/>
<polyline fill="none" stroke="grey" points="424,-36.084 424,-41.084 "/>
<polygon fill="grey" stroke="grey" points="419,-42.0841 429,-42.084 429,-44.084 419,-44.0841 419,-42.0841"/>
<polyline fill="none" stroke="grey" points="424,-41.084 424,-46.084 "/>
<text text-anchor="middle" x="447" y="-58.3" font-family="Times,serif" font-size="14.00">A teetee</text>
</g>
</g>
</svg>
