<?xml version="1.0" encoding="UTF-8" standalone="no"?>
<!DOCTYPE svg PUBLIC "-//W3C//DTD SVG 1.1//EN"
 "http://www.w3.org/Graphics/SVG/1.1/DTD/svg11.dtd">
<!-- Generated by graphviz version 2.30.1 (20130611.0131)
 -->
<!-- Title: Perl Pages: 1 -->
<svg width="267pt" height="146pt"
 viewBox="0.00 0.00 267.34 146.00" xmlns="http://www.w3.org/2000/svg" xmlns:xlink="http://www.w3.org/1999/xlink">
<g id="graph0" class="graph" transform="scale(1 1) rotate(0) translate(4 142)">
<title>Perl</title>
<polygon fill="white" stroke="white" points="-4,5 -4,-142 264.344,-142 264.344,5 -4,5"/>
<!-- dummy.prefix.node -->
<g id="node1" class="node"><title>dummy.prefix.node</title>
<ellipse fill="none" stroke="none" cx="48.3444" cy="-120" rx="27" ry="18"/>
</g>
<!-- dummy.suffix.node -->
<g id="node2" class="node"><title>dummy.suffix.node</title>
<ellipse fill="none" stroke="none" cx="48.3444" cy="-18" rx="27" ry="18"/>
</g>
<!-- dummy.prefix.node&#45;&gt;dummy.suffix.node -->
<g id="edge1" class="edge"><title>dummy.prefix.node&#45;&gt;dummy.suffix.node</title>
<path fill="none" stroke="cornflowerblue" d="M27.6731,-108.196C18.7587,-102.341 9.26341,-94.1983 4.3444,-84 -1.44813,-71.9907 -1.44813,-66.0093 4.3444,-54 7.72622,-46.9887 13.2711,-40.9491 19.3031,-35.9562"/>
<polygon fill="cornflowerblue" stroke="cornflowerblue" points="21.6887,-38.5465 27.6731,-29.8036 17.5428,-32.9063 21.6887,-38.5465"/>
<text text-anchor="middle" x="37.8444" y="-72.8" font-family="Times,serif" font-size="14.00">Top row</text>
<text text-anchor="middle" x="37.8444" y="-57.8" font-family="Times,serif" font-size="14.00">Bottom row</text>
</g>
<!-- dummy.prefix.node&#45;&gt;dummy.suffix.node -->
<g id="edge2" class="edge"><title>dummy.prefix.node&#45;&gt;dummy.suffix.node</title>
<path fill="none" stroke="red" d="M60.9925,-103.955C65.1357,-98.1048 69.2188,-91.1052 71.3444,-84 75.1659,-71.226 75.1659,-66.774 71.3444,-54 70.1819,-50.1143 68.4341,-46.2602 66.4111,-42.6085"/>
<polygon fill="red" stroke="red" points="69.2972,-40.6239 60.9925,-34.045 63.3819,-44.3669 69.2972,-40.6239"/>
<text text-anchor="middle" x="166.344" y="-65.3" font-family="Times,serif" font-size="14.00">Edges use cornflowerblue and red</text>
</g>
</g>
</svg>
