<?xml version="1.0" encoding="UTF-8" standalone="no"?>
<!DOCTYPE svg PUBLIC "-//W3C//DTD SVG 1.1//EN"
 "http://www.w3.org/Graphics/SVG/1.1/DTD/svg11.dtd">
<!-- Generated by graphviz version 2.30.1 (20130611.0131)
 -->
<!-- Title: Perl Pages: 1 -->
<svg width="62pt" height="116pt"
 viewBox="0.00 0.00 62.00 116.00" xmlns="http://www.w3.org/2000/svg" xmlns:xlink="http://www.w3.org/1999/xlink">
<g id="graph0" class="graph" transform="scale(1 1) rotate(0) translate(4 112)">
<title>Perl</title>
<polygon fill="white" stroke="white" points="-4,5 -4,-112 59,-112 59,5 -4,5"/>
<!-- dummy.prefix.node -->
<g id="node1" class="node"><title>dummy.prefix.node</title>
<ellipse fill="none" stroke="none" cx="27" cy="-90" rx="27" ry="18"/>
</g>
<!-- dummy.suffix.node -->
<g id="node2" class="node"><title>dummy.suffix.node</title>
<ellipse fill="none" stroke="none" cx="27" cy="-18" rx="27" ry="18"/>
</g>
<!-- dummy.prefix.node&#45;&gt;dummy.suffix.node -->
<g id="edge1" class="edge"><title>dummy.prefix.node&#45;&gt;dummy.suffix.node</title>
<path fill="none" stroke="grey" d="M15.5599,-73.4647C13.5404,-64.9458 13.0058,-54.1712 13.9562,-44.458"/>
<polygon fill="grey" stroke="grey" points="17.4264,-44.9228 15.5702,-34.4918 10.5165,-43.8036 17.4264,-44.9228"/>
</g>
<!-- dummy.prefix.node&#45;&gt;dummy.suffix.node -->
<g id="edge2" class="edge"><title>dummy.prefix.node&#45;&gt;dummy.suffix.node</title>
<path fill="none" stroke="grey" d="M27,-71.6966C27,-63.9827 27,-54.7125 27,-46.1124"/>
<polygon fill="grey" stroke="grey" points="30.5001,-46.1043 27,-36.1043 23.5001,-46.1044 30.5001,-46.1043"/>
</g>
<!-- dummy.prefix.node&#45;&gt;dummy.suffix.node -->
<g id="edge3" class="edge"><title>dummy.prefix.node&#45;&gt;dummy.suffix.node</title>
<path fill="none" stroke="grey" d="M38.4401,-73.4647C40.4596,-64.9458 40.9942,-54.1712 40.0438,-44.458"/>
<polygon fill="grey" stroke="grey" points="43.4835,-43.8036 38.4298,-34.4918 36.5736,-44.9228 43.4835,-43.8036"/>
</g>
</g>
</svg>
