<?xml version="1.0" encoding="UTF-8" standalone="no"?>
<!DOCTYPE svg PUBLIC "-//W3C//DTD SVG 1.1//EN"
 "http://www.w3.org/Graphics/SVG/1.1/DTD/svg11.dtd">
<!-- Generated by graphviz version 2.30.1 (20130611.0131)
 -->
<!-- Title: Perl Pages: 1 -->
<svg width="156pt" height="220pt"
 viewBox="0.00 0.00 156.40 220.00" xmlns="http://www.w3.org/2000/svg" xmlns:xlink="http://www.w3.org/1999/xlink">
<g id="graph0" class="graph" transform="scale(1 1) rotate(0) translate(4 216)">
<title>Perl</title>
<polygon fill="white" stroke="white" points="-4,5 -4,-216 153.4,-216 153.4,5 -4,5"/>
<!-- node.1 -->
<g id="node1" class="node"><title>node.1</title>
<ellipse fill="none" stroke="black" cx="61.4003" cy="-194" rx="27" ry="18"/>
<text text-anchor="middle" x="61.4003" y="-190.3" font-family="Times,serif" font-size="14.00">n 1</text>
</g>
<g id="node2" class="node"><title></title>
<ellipse fill="none" stroke="none" cx="61.4003" cy="-106" rx="27" ry="18"/>
<text text-anchor="middle" x="61.4003" y="-102.3" font-family="Times,serif" font-size="14.00">n 2</text>
</g>
<!-- node.1&#45;&gt; -->
<g id="edge1" class="edge"><title>node.1&#45;&gt;</title>
<path fill="none" stroke="grey" d="M50.7284,-177.315C47.3733,-171.508 44.1019,-164.701 42.4003,-158 40.6501,-151.108 40.6501,-148.892 42.4003,-142 43.2777,-138.545 44.5724,-135.061 46.0808,-131.701"/>
<polygon fill="grey" stroke="grey" points="49.2576,-133.177 50.7284,-122.685 43.0356,-129.97 49.2576,-133.177"/>
<text text-anchor="middle" x="50.9003" y="-146.3" font-family="Times,serif" font-size="14.00">e 1</text>
</g>
<!-- node.1&#45;&gt; -->
<g id="edge2" class="edge"><title>node.1&#45;&gt;</title>
<path fill="none" stroke="grey" d="M61.4003,-175.597C61.4003,-163.746 61.4003,-147.817 61.4003,-134.292"/>
<polygon fill="grey" stroke="grey" points="64.9004,-134.084 61.4003,-124.084 57.9004,-134.084 64.9004,-134.084"/>
<text text-anchor="middle" x="69.9003" y="-146.3" font-family="Times,serif" font-size="14.00">e 2</text>
</g>
<!-- node.3 -->
<g id="node3" class="node"><title>node.3</title>
<ellipse fill="none" stroke="black" cx="41.4003" cy="-18" rx="27" ry="18"/>
<text text-anchor="middle" x="41.4003" y="-14.3" font-family="Times,serif" font-size="14.00">n 3</text>
</g>
<!-- &#45;&gt;node.3 -->
<g id="edge3" class="edge"><title>&#45;&gt;node.3</title>
<path fill="none" stroke="grey" d="M37.5583,-97.4352C24.6943,-91.997 9.94435,-83.247 2.40025,-70 -4.16897,-58.4649 3.81434,-46.6248 14.2319,-37.26"/>
<polygon fill="grey" stroke="grey" points="16.4994,-39.9276 22.0745,-30.9181 12.0979,-34.4845 16.4994,-39.9276"/>
<text text-anchor="middle" x="10.9003" y="-58.3" font-family="Times,serif" font-size="14.00">e 3</text>
</g>
<!-- dummy.suffix.node -->
<g id="node4" class="node"><title>dummy.suffix.node</title>
<ellipse fill="none" stroke="none" cx="121.4" cy="-18" rx="27" ry="18"/>
</g>
<!-- &#45;&gt;dummy.suffix.node -->
<g id="edge6" class="edge"><title>&#45;&gt;dummy.suffix.node</title>
<path fill="none" stroke="grey" d="M72.4052,-89.2263C81.3704,-76.3761 94.1804,-58.0152 104.453,-43.2903"/>
<polygon fill="grey" stroke="grey" points="107.614,-44.8777 110.465,-34.6737 101.873,-40.8724 107.614,-44.8777"/>
<text text-anchor="middle" x="104.9" y="-58.3" font-family="Times,serif" font-size="14.00">e 6</text>
</g>
<!-- node.3&#45;&gt; -->
<g id="edge4" class="edge"><title>node.3&#45;&gt;</title>
<path fill="none" stroke="grey" d="M39.7272,-36.2808C39.2528,-46.291 39.5028,-59.041 42.4003,-70 43.3115,-73.4466 44.6265,-76.9247 46.1455,-80.2818"/>
<polygon fill="grey" stroke="grey" points="43.1026,-82.0173 50.8015,-89.2958 49.3219,-78.8048 43.1026,-82.0173"/>
<text text-anchor="middle" x="50.9003" y="-58.3" font-family="Times,serif" font-size="14.00">e 4</text>
</g>
<!-- node.3&#45;&gt; -->
<g id="edge5" class="edge"><title>node.3&#45;&gt;</title>
<path fill="none" stroke="grey" d="M51.3707,-34.7889C54.5361,-40.6056 57.6628,-47.3917 59.4003,-54 61.383,-61.5414 62.239,-69.9244 62.5085,-77.6793"/>
<polygon fill="grey" stroke="grey" points="59.0087,-77.7462 62.5633,-87.7269 66.0086,-77.708 59.0087,-77.7462"/>
<text text-anchor="middle" x="69.9003" y="-58.3" font-family="Times,serif" font-size="14.00">e 5</text>
</g>
</g>
</svg>
