<?xml version="1.0" encoding="UTF-8" standalone="no"?>
<!DOCTYPE svg PUBLIC "-//W3C//DTD SVG 1.1//EN"
 "http://www.w3.org/Graphics/SVG/1.1/DTD/svg11.dtd">
<!-- Generated by graphviz version 2.30.1 (20130611.0131)
 -->
<!-- Title: Perl Pages: 1 -->
<svg width="62pt" height="220pt"
 viewBox="0.00 0.00 62.00 220.00" xmlns="http://www.w3.org/2000/svg" xmlns:xlink="http://www.w3.org/1999/xlink">
<g id="graph0" class="graph" transform="scale(1 1) rotate(0) translate(4 216)">
<title>Perl</title>
<polygon fill="white" stroke="white" points="-4,5 -4,-216 59,-216 59,5 -4,5"/>
<!-- node -->
<g id="node1" class="node"><title>node</title>
<ellipse fill="none" stroke="black" cx="27" cy="-194" rx="27" ry="18"/>
<text text-anchor="middle" x="27" y="-190.3" font-family="Times,serif" font-size="14.00">n 1</text>
</g>
<g id="node2" class="node"><title></title>
<ellipse fill="none" stroke="none" cx="27" cy="-106" rx="27" ry="18"/>
<text text-anchor="middle" x="27" y="-102.3" font-family="Times,serif" font-size="14.00">n 2</text>
</g>
<!-- node&#45;&gt; -->
<g id="edge1" class="edge"><title>node&#45;&gt;</title>
<path fill="none" stroke="grey" d="M16.3282,-177.315C12.9731,-171.508 9.70165,-164.701 8,-158 6.24984,-151.108 6.24984,-148.892 8,-142 8.87741,-138.545 10.1722,-135.061 11.6806,-131.701"/>
<polygon fill="grey" stroke="grey" points="14.8573,-133.177 16.3282,-122.685 8.6353,-129.97 14.8573,-133.177"/>
<text text-anchor="middle" x="16.5" y="-146.3" font-family="Times,serif" font-size="14.00">e 1</text>
</g>
<!-- node&#45;&gt; -->
<g id="edge2" class="edge"><title>node&#45;&gt;</title>
<path fill="none" stroke="grey" d="M27,-175.597C27,-163.746 27,-147.817 27,-134.292"/>
<polygon fill="grey" stroke="grey" points="30.5001,-134.084 27,-124.084 23.5001,-134.084 30.5001,-134.084"/>
<text text-anchor="middle" x="35.5" y="-146.3" font-family="Times,serif" font-size="14.00">e 2</text>
</g>
<!-- dummy.suffix.node -->
<g id="node3" class="node"><title>dummy.suffix.node</title>
<ellipse fill="none" stroke="none" cx="27" cy="-18" rx="27" ry="18"/>
</g>
<!-- &#45;&gt;dummy.suffix.node -->
<g id="edge3" class="edge"><title>&#45;&gt;dummy.suffix.node</title>
<path fill="none" stroke="grey" d="M27,-87.5966C27,-75.7459 27,-59.8169 27,-46.2917"/>
<polygon fill="grey" stroke="grey" points="30.5001,-46.084 27,-36.084 23.5001,-46.084 30.5001,-46.084"/>
<text text-anchor="middle" x="35.5" y="-58.3" font-family="Times,serif" font-size="14.00">e 3</text>
</g>
</g>
</svg>
