<?xml version="1.0" encoding="UTF-8" standalone="no"?>
<!DOCTYPE svg PUBLIC "-//W3C//DTD SVG 1.1//EN"
 "http://www.w3.org/Graphics/SVG/1.1/DTD/svg11.dtd">
<!-- Generated by graphviz version 2.30.1 (20130611.0131)
 -->
<!-- Title: Perl Pages: 1 -->
<svg width="99pt" height="206pt"
 viewBox="0.00 0.00 99.00 206.00" xmlns="http://www.w3.org/2000/svg" xmlns:xlink="http://www.w3.org/1999/xlink">
<g id="graph0" class="graph" transform="scale(1 1) rotate(0) translate(4 202)">
<title>Perl</title>
<polygon fill="white" stroke="white" points="-4,5 -4,-202 96,-202 96,5 -4,5"/>
<!-- node.1 -->
<g id="node1" class="node"><title>node.1</title>
<ellipse fill="none" stroke="red" cx="38" cy="-180" rx="38.0212" ry="18"/>
<text text-anchor="middle" x="38" y="-176.3" font-family="Times,serif" font-size="14.00">Node A</text>
</g>
<!-- node.2 -->
<g id="node2" class="node"><title>node.2</title>
<ellipse fill="none" stroke="black" cx="38" cy="-92" rx="34.1708" ry="18"/>
<text text-anchor="middle" x="38" y="-88.3" font-family="Times,serif" font-size="14.00">node.2</text>
</g>
<!-- node.1&#45;&gt;node.2 -->
<g id="edge1" class="edge"><title>node.1&#45;&gt;node.2</title>
<path fill="none" stroke="green" d="M20.3736,-163.96C15.0243,-158.31 9.82037,-151.438 7,-144 3.26948,-134.162 7.37621,-124.104 13.6896,-115.549"/>
<polygon fill="green" stroke="green" points="16.416,-117.746 20.235,-107.863 11.0866,-113.207 16.416,-117.746"/>
<text text-anchor="middle" x="27.5" y="-132.3" font-family="Times,serif" font-size="14.00">Edge B</text>
</g>
<!-- node.1&#45;&gt;node.2 -->
<g id="edge2" class="edge"><title>node.1&#45;&gt;node.2</title>
<path fill="none" stroke="red" d="M43.8498,-162.115C45.5419,-156.432 47.1585,-150.008 48,-144 48.9863,-136.958 48.9863,-135.042 48,-128 47.6187,-125.278 47.0783,-122.47 46.4438,-119.684"/>
<polygon fill="red" stroke="red" points="49.7923,-118.656 43.8498,-109.885 43.0254,-120.448 49.7923,-118.656"/>
<text text-anchor="middle" x="69.5" y="-132.3" font-family="Times,serif" font-size="14.00">Node C</text>
</g>
<!-- dummy.suffix.node -->
<g id="node3" class="node"><title>dummy.suffix.node</title>
<ellipse fill="none" stroke="none" cx="38" cy="-18" rx="27" ry="18"/>
</g>
<!-- node.2&#45;&gt;dummy.suffix.node -->
<g id="edge3" class="edge"><title>node.2&#45;&gt;dummy.suffix.node</title>
<path fill="none" stroke="grey" d="M38,-73.937C38,-65.8072 38,-55.8761 38,-46.7047"/>
<polygon fill="grey" stroke="grey" points="41.5001,-46.4406 38,-36.4407 34.5001,-46.4407 41.5001,-46.4406"/>
</g>
</g>
</svg>
