<?xml version="1.0" encoding="UTF-8" standalone="no"?>
<!DOCTYPE svg PUBLIC "-//W3C//DTD SVG 1.1//EN"
 "http://www.w3.org/Graphics/SVG/1.1/DTD/svg11.dtd">
<!-- Generated by graphviz version 2.30.1 (20130611.0131)
 -->
<!-- Title: Perl Pages: 1 -->
<svg width="108pt" height="206pt"
 viewBox="0.00 0.00 108.00 206.00" xmlns="http://www.w3.org/2000/svg" xmlns:xlink="http://www.w3.org/1999/xlink">
<g id="graph0" class="graph" transform="scale(1 1) rotate(0) translate(4 202)">
<title>Perl</title>
<polygon fill="white" stroke="white" points="-4,5 -4,-202 105,-202 105,5 -4,5"/>
<!-- node.1 -->
<g id="node1" class="node"><title>node.1</title>
<ellipse fill="none" stroke="black" cx="50" cy="-180" rx="34.1708" ry="18"/>
<text text-anchor="middle" x="50" y="-176.3" font-family="Times,serif" font-size="14.00">node.1</text>
</g>
<g id="node2" class="node"><title></title>
<ellipse fill="none" stroke="none" cx="50" cy="-92" rx="50.5427" ry="18"/>
<text text-anchor="middle" x="50" y="-88.3" font-family="Times,serif" font-size="14.00">Some node</text>
</g>
<!-- node.1&#45;&gt; -->
<g id="edge1" class="edge"><title>node.1&#45;&gt;</title>
<path fill="none" stroke="green" d="M17.7069,-158.399C13.3749,-154.183 9.55214,-149.368 7,-144 1.60535,-132.653 8.50473,-121.765 18.2473,-112.984"/>
<polygon fill="none" stroke="green" points="17.8494,-158.518 25.0197,-159.284 27.07,-166.198 19.8997,-165.431 17.8494,-158.518"/>
<ellipse fill="none" stroke="green" cx="21.4971" cy="-110.332" rx="4.00002" ry="4.00002"/>
<text text-anchor="middle" x="17.5" y="-132.3" font-family="Times,serif" font-size="14.00">A 1</text>
</g>
<!-- node.1&#45;&gt; -->
<g id="edge2" class="edge"><title>node.1&#45;&gt;</title>
<path fill="none" stroke="blue" stroke-width="3" d="M50,-161.597C50,-149.746 50,-133.817 50,-120.292"/>
<polygon fill="blue" stroke="blue" points="53.5001,-120.084 50,-110.084 46.5001,-120.084 53.5001,-120.084"/>
<text text-anchor="middle" x="60" y="-132.3" font-family="Times,serif" font-size="14.00">B 2</text>
</g>
<!-- node.1&#45;&gt; -->
<g id="edge3" class="edge"><title>node.1&#45;&gt;</title>
<path fill="none" stroke="maroon" stroke-width="5" d="M70.1239,-146.821C70.4458,-145.882 70.7393,-144.941 71,-144 72.8982,-137.147 72.8982,-134.853 71,-128 70.111,-124.79 68.8405,-121.579 67.3587,-118.476"/>
<polygon fill="maroon" stroke="maroon" points="58.0899,-161.157 66.4665,-154.158 65.921,-165.06 58.0899,-161.157"/>
<ellipse fill="maroon" stroke="maroon" cx="68.251" cy="-150.579" rx="4.00001" ry="4.00001"/>
<polygon fill="maroon" stroke="maroon" points="58.9486,-111.532 65.9497,-107.661 69.8208,-114.662 62.8197,-118.533 58.9486,-111.532"/>
<polyline fill="none" stroke="maroon" points="66.3202,-116.598 67.288,-118.348 "/>
<text text-anchor="middle" x="82" y="-132.3" font-family="Times,serif" font-size="14.00">C 3</text>
</g>
<!-- node.2 -->
<g id="node3" class="node"><title>node.2</title>
<ellipse fill="none" stroke="black" cx="50" cy="-18" rx="34.1708" ry="18"/>
<text text-anchor="middle" x="50" y="-14.3" font-family="Times,serif" font-size="14.00">node.2</text>
</g>
<!-- &#45;&gt;node.2 -->
<g id="edge4" class="edge"><title>&#45;&gt;node.2</title>
<path fill="none" stroke="grey" d="M50,-73.937C50,-65.8072 50,-55.8761 50,-46.7047"/>
<polygon fill="grey" stroke="grey" points="53.5001,-46.4406 50,-36.4407 46.5001,-46.4407 53.5001,-46.4406"/>
</g>
</g>
</svg>
