<?xml version="1.0" encoding="UTF-8" standalone="no"?>
<!DOCTYPE svg PUBLIC "-//W3C//DTD SVG 1.1//EN"
 "http://www.w3.org/Graphics/SVG/1.1/DTD/svg11.dtd">
<!-- Generated by graphviz version 2.30.1 (20130611.0131)
 -->
<!-- Title: Perl Pages: 1 -->
<svg width="382pt" height="72pt"
 viewBox="0.00 0.00 382.00 72.00" xmlns="http://www.w3.org/2000/svg" xmlns:xlink="http://www.w3.org/1999/xlink">
<g id="graph0" class="graph" transform="scale(1 1) rotate(0) translate(4 68)">
<title>Perl</title>
<polygon fill="white" stroke="white" points="-4,5 -4,-68 379,-68 379,5 -4,5"/>
<!-- node.1 -->
<g id="node1" class="node"><title>node.1</title>
<polygon fill="none" stroke="red" points="366.316,-22.1016 366.316,-41.8984 261.275,-55.8969 112.725,-55.8969 7.68353,-41.8984 7.68353,-22.1016 112.725,-8.10312 261.275,-8.10312 366.316,-22.1016"/>
<polygon fill="none" stroke="red" points="370.304,-18.5694 370.304,-45.4306 261.537,-59.9256 112.463,-59.9256 3.69565,-45.4306 3.69565,-18.5694 112.463,-4.07437 261.537,-4.07437 370.304,-18.5694"/>
<polygon fill="none" stroke="red" points="374.292,-15.0372 374.292,-48.9628 261.799,-63.9544 112.201,-63.9544 -0.29224,-48.9628 -0.29224,-15.0372 112.201,-0.0456276 261.799,-0.0456276 374.292,-15.0372"/>
<text text-anchor="start" x="82.5" y="-28.3" font-family="Times,serif" font-size="14.00">HTML&#45;style label but without borders</text>
</g>
</g>
</svg>
